
<svg width="1440" height="560" viewBox="0 0 1440 560" fill="none" xmlns="http://www.w3.org/2000/svg">
  <rect width="1440" height="560" fill="#F8FAFC"/>
  <path d="M0 400L120 380C240 360 480 320 720 320C960 320 1200 360 1320 380L1440 400V560H1320C1200 560 960 560 720 560C480 560 240 560 120 560H0V400Z" fill="#E2E8F0" fill-opacity="0.8"/>
  <path d="M0 440L120 436.7C240 433.3 480 426.7 720 426.7C960 426.7 1200 433.3 1320 436.7L1440 440V560H1320C1200 560 960 560 720 560C480 560 240 560 120 560H0V440Z" fill="#CBD5E1" fill-opacity="0.6"/>
  <path d="M0 480L120 483.3C240 486.7 480 493.3 720 493.3C960 493.3 1200 486.7 1320 483.3L1440 480V560H1320C1200 560 960 560 720 560C480 560 240 560 120 560H0V480Z" fill="#94A3B8" fill-opacity="0.4"/>
  <path d="M1300 100C1300 144.183 1264.18 180 1220 180C1175.82 180 1140 144.183 1140 100C1140 55.8172 1175.82 20 1220 20C1264.18 20 1300 55.8172 1300 100Z" fill="#3B82F6" fill-opacity="0.1"/>
  <path d="M360 200C360 233.137 333.137 260 300 260C266.863 260 240 233.137 240 200C240 166.863 266.863 140 300 140C333.137 140 360 166.863 360 200Z" fill="#3B82F6" fill-opacity="0.1"/>
  <path d="M900 140C900 173.137 873.137 200 840 200C806.863 200 780 173.137 780 140C780 106.863 806.863 80 840 80C873.137 80 900 106.863 900 140Z" fill="#10B981" fill-opacity="0.1"/>
</svg>
